<?xml version="1.0" encoding="iso-8859-1"?>
<!-- Generator: Adobe Illustrator 19.0.0, SVG Export Plug-In . SVG Version: 6.00 Build 0)  -->
<svg version="1.1" id="Layer_1" xmlns="http://www.w3.org/2000/svg" xmlns:xlink="http://www.w3.org/1999/xlink" x="0px" y="0px"
	 viewBox="0 0 512 512" style="enable-background:new 0 0 512 512;" xml:space="preserve">
<g>
	<g>
		<path d="M256,33.781c-43.05,0-78.074,35.024-78.074,78.075c0,43.05,35.024,78.074,78.074,78.074
			c43.05,0,78.074-35.024,78.074-78.074C334.074,68.805,299.05,33.781,256,33.781z M256,169.531
			c-31.802,0-57.675-25.873-57.675-57.676c0-31.803,25.873-57.676,57.675-57.676s57.675,25.873,57.675,57.676
			C313.676,143.658,287.802,169.531,256,169.531z"/>
	</g>
</g>
<g>
	<g>
		<path d="M260.948,103.157V86.632c7.358,0.566,9.508,4.188,13.243,4.188c4.98,0,7.018-6.226,7.018-9.282
			c0-7.81-13.243-9.621-20.261-9.847v-2.829c0-1.585-2.15-3.056-4.301-3.056c-2.49,0-4.301,1.471-4.301,3.056v3.169
			c-11.998,1.698-22.637,8.603-22.637,22.977c0,14.488,12.224,19.356,22.637,23.316v18.337c-8.376-1.471-12.224-8.149-16.978-8.149
			c-4.301,0-7.696,5.66-7.696,9.508c0,7.245,11.092,14.261,24.675,14.714v2.829c0,1.585,1.811,3.056,4.301,3.056
			c2.149,0.001,4.3-1.47,4.3-3.055v-3.283c13.243-2.15,22.299-10.64,22.299-24.674C283.246,112.326,271.248,107.006,260.948,103.157
			z M253.477,100.441c-4.301-1.81-7.245-3.848-7.245-7.13c0-2.717,2.15-5.32,7.245-6.339V100.441z M259.816,136.548v-15.166h0
			c4.075,1.924,6.905,4.301,6.905,8.036C266.72,133.492,263.664,135.643,259.816,136.548z"/>
	</g>
</g>
<g>
	<g>
		<path d="M359.784,313.306h-93.585v-5.695c35.044-4.521,62.215-34.529,62.215-70.784c0-5.632-4.566-10.199-10.199-10.199
			c-20.493,0-38.983,8.692-52.016,22.567V223.24c56.915-5.17,101.655-53.146,101.655-111.384C367.855,50.178,317.678,0,256,0
			S144.145,50.178,144.145,111.856c0,58.24,44.741,106.216,101.655,111.385v90.065h-93.585c-5.633,0-10.199,4.567-10.199,10.199
			v46.126c0,5.632,4.566,10.199,10.199,10.199h10.202v121.971c0,5.632,4.566,10.199,10.199,10.199h166.765
			c5.633,0,10.199-4.567,10.199-10.199V379.83h10.202c5.633,0,10.199-4.567,10.199-10.199v-46.126
			C369.983,317.872,365.417,313.306,359.784,313.306z M306.706,248.334c-4.374,18.896-19.281,33.803-38.178,38.178
			C272.903,267.616,287.809,252.709,306.706,248.334z M164.544,111.856c0-50.429,41.027-91.457,91.456-91.457
			s91.456,41.028,91.456,91.457c0,50.429-41.027,91.456-91.456,91.456C205.571,203.312,164.544,162.285,164.544,111.856z
			 M329.183,491.602H182.817V379.83h146.367V491.602z M349.586,359.431H162.415v-25.727h187.171V359.431z"/>
	</g>
</g>
<g>
	<g>
		<path d="M202.964,400.013c-5.633,0-10.199,4.567-10.199,10.199v2.044c0,5.633,4.566,10.199,10.199,10.199
			c5.633,0,10.199-4.567,10.199-10.199v-2.044C213.163,404.58,208.597,400.013,202.964,400.013z"/>
	</g>
</g>
<g>
	<g>
		<path d="M202.964,431.635c-5.633,0-10.199,4.567-10.199,10.199v30.593c0,5.633,4.566,10.199,10.199,10.199
			c5.633,0,10.199-4.567,10.199-10.199v-30.593C213.163,436.203,208.597,431.635,202.964,431.635z"/>
	</g>
</g>
<g>
</g>
<g>
</g>
<g>
</g>
<g>
</g>
<g>
</g>
<g>
</g>
<g>
</g>
<g>
</g>
<g>
</g>
<g>
</g>
<g>
</g>
<g>
</g>
<g>
</g>
<g>
</g>
<g>
</g>
</svg>
